# xmcd
# 
# Track frame offsets:
#     150
#     13102
#     24622
#     39775
#     54032
#     67402
#     79000
#     95452
#     110520
#     125115
#     139722
#     157020
#     169970
#     186455
#     199950
#     214522
#     230597
#     245590
#     262137
#     275035
#     289835
#     306125
#     322362
# 
# Disc length: 4444
# 
# Revision: 6
# Processed by: cddbd v1.5.2PL0 Copyright (c) Steve Scherf et al.
# Submitted via: fre:ac v1.0.31
# 
DISCID=68115a17
DTITLE=Various Artist - Stereoplay Special CD 59 - Country
DYEAR=1991
DGENRE=Country
TTITLE0=Dolly Parton - Time For Me To Fly
TTITLE1=Willie Nelson - On The Road Again
TTITLE2=Kathy Mattea - Eighteen Wheels And A Dozen Roses
TTITLE3=Ricky Skaggs - Highway 40 Blues
TTITLE4=Ricky Van Shelton - Hillbilly Heart
TTITLE5=Crystal Gayle - Never Ending Song Of Love
TTITLE6=Alan Jackson - Here In The Real World
TTITLE7=Asleep At The Wheel - Chattanooga Choo Choo
TTITLE8=Johnny Cash - South Wind
TTITLE9=Rosanne Cash - Me Baby Thinks He's A Train
TTITLE10=Don Williams - Old Coyote Town
TTITLE11=James Talley - Bluesman
TTITLE12=Merle Haggard - 1929
TTITLE13=The Judds - Let Me Tell You About Love
TTITLE14=David Allan Coe - Willie, Waylon and Me
TTITLE15=Lacy J. Dalton - Willie Nelson - Slow Movin' Outlaw
TTITLE16=Exile - Keep It In The Middle Of The Road
TTITLE17=Alabama - Jukebox In My Mind
TTITLE18=Tom T. Hall - Susie's Beauty Shop
TTITLE19=Sweethearts Of The Rodeo - Como Se Dice
TTITLE20=Charlie Daniels Band - The Devil Went Down To Georgia
TTITLE21=Lacy J. Dalton - Black Coffee
TTITLE22=The O'Kanes - Is The Party Over
EXTD=
EXTT0=
EXTT1=
EXTT2=
EXTT3=
EXTT4=
EXTT5=
EXTT6=
EXTT7=
EXTT8=
EXTT9=
EXTT10=
EXTT11=
EXTT12=
EXTT13=
EXTT14=
EXTT15=
EXTT16=
EXTT17=
EXTT18=
EXTT19=
EXTT20=
EXTT21=
EXTT22=
PLAYORDER=
